<?xml version="1.0" standalone="no"?>
<!DOCTYPE svg PUBLIC "-//W3C//DTD SVG 1.1//EN" "http://www.w3.org/Graphics/SVG/1.1/DTD/svg11.dtd" >
<svg>
<metadata>
Created by FontForge 20090622 at Wed Dec  2 19:30:41 2015
 By deploy user
Generated in 2011 by FontLab Studio. Copyright info pending.
</metadata>
<defs>
<font id="Carton" horiz-adv-x="775" >
  <font-face 
    font-family="Carton"
    font-weight="400"
    font-stretch="normal"
    units-per-em="1000"
    panose-1="0 0 0 0 0 0 0 0 0 0"
    ascent="750"
    descent="-250"
    x-height="700"
    cap-height="699"
    bbox="30 -115.442 993 751"
    underline-thickness="50"
    underline-position="-50"
    unicode-range="U+000D-U+20AC"
  />
<missing-glyph horiz-adv-x="500" 
 />
    <glyph glyph-name=".notdef" horiz-adv-x="500" 
 />
    <glyph glyph-name=".null" horiz-adv-x="0" 
 />
    <glyph glyph-name=".null" horiz-adv-x="0" 
 />
    <glyph glyph-name="nonmarkingreturn" horiz-adv-x="333" 
 />
    <glyph glyph-name="CR" unicode="&#xd;" horiz-adv-x="500" 
 />
    <glyph glyph-name="space" unicode=" " horiz-adv-x="200" 
 />
    <glyph glyph-name="exclam" unicode="!" horiz-adv-x="275" 
d="M188 223h-100l-38 387q0 38 25 63t63 25q37 0 62 -25t25 -63v-24zM138 174q38 0 62.5 -25t24.5 -62q0 -38 -24.5 -63t-62.5 -25t-63 25t-25 63q0 37 25 62t63 25z" />
    <glyph glyph-name="quotedbl" unicode="&#x22;" horiz-adv-x="833" 
 />
    <glyph glyph-name="numbersign" unicode="#" horiz-adv-x="691" 
d="M604 352h-89l-12 -63h87l-38 -150h-87l-25 -139h-139l38 139h-62l-38 -139h-126l25 139h-88l39 150h87l12 63h-87l37 151h88l37 138h127l-26 -138h52l37 138h137l-38 -138h89zM390 352h-63l-12 -63h49z" />
    <glyph glyph-name="dollar" unicode="$" horiz-adv-x="523" 
d="M483 222q0 -42 -16 -73.5t-38.5 -47t-52.5 -25.5t-50 -12t-40 -2v-62h-49v62q-70 11 -98 61v-61h-99v234h99v-50q0 -30 27.5 -58t70.5 -28v136q-39 11 -66 22t-57 30.5t-45.5 49.5t-15.5 70q0 67 51 114t133 46v74h49v-76q54 -17 74 -60v62h99v-196h-99q0 31 -18 58.5
t-54 32.5l-2 -104q4 -1 29 -9t34 -11.5t31.5 -13.5t32.5 -18.5l26.5 -23.5t24 -31.5t13.5 -39.5t6 -50zM176 473q1 -11 18.5 -25.5t42.5 -17.5v99q-28 0 -46 -12t-15 -44zM286 160q74 7 74 62q0 26 -17 38.5t-57 22.5v-123z" />
    <glyph glyph-name="percent" unicode="%" horiz-adv-x="883" 
d="M286 -38h-177l500 788l175 -1zM667 -22q-75 0 -119 51t-44 137q0 76 44.5 125t118.5 49q85 0 130.5 -45t45.5 -129q0 -87 -46 -137.5t-130 -50.5zM632 166q1 -44 19.5 -58.5t36.5 4t18 54.5t-18.5 53.5t-37 2.5t-18.5 -56zM215 355q-76 0 -125.5 52t-49.5 135
q0 77 50.5 133.5t124.5 56.5q76 0 125.5 -53t49.5 -137q0 -83 -49.5 -135t-125.5 -52zM177 542q1 -39 20 -53.5t37.5 1.5t18.5 52q0 28 -12 45t-26 17.5t-26 -16t-12 -46.5z" />
    <glyph glyph-name="ampersand" unicode="&#x26;" horiz-adv-x="805" 
d="M617 126h135v-126h-226v37q-110 -37 -225 -37q-105 0 -178 68t-73 170q0 46 17 90.5t45 73.5q-3 9 -9 25.5t-8.5 25t-5 22t-2.5 26.5q0 86 60 143.5t154 57.5q92 0 146 -56.5t54 -144.5h-138q0 28 -19.5 46t-47.5 18q-29 0 -49.5 -16t-20.5 -48q0 -22 46.5 -78.5
t140.5 -134.5q44 -42 108 -85q41 20 50 26q43 30 43 84q0 26 -12.5 38.5t-25.5 12.5q-37 0 -37 -39h-131q0 73 49.5 118.5t118.5 45.5q147 0 176 -142q9 -44 -14.5 -97t-60.5 -87q-17 -16 -60 -37zM301 138h74q-107 83 -174 150q-14 -12 -14 -50t34 -69t80 -31z" />
    <glyph glyph-name="parenleft" unicode="(" horiz-adv-x="431" 
d="M315 -89q-25 5 -53 16t-70 41t-73.5 71t-55 112.5t-23.5 160.5t22 162t53 116t71.5 74.5t71 44t57.5 17.5l76 25v-125l-38 -12q-149 -40 -149 -302q0 -243 149 -301h38v-125z" />
    <glyph glyph-name="parenright" unicode=")" horiz-adv-x="417" 
d="M40 13h37q138 59 138 299q0 263 -138 301l-37 13v124l61 -25q25 -5 53.5 -16t70.5 -41.5t74 -73t55 -116.5t23 -166q0 -64 -12 -119.5t-31.5 -94.5t-45.5 -71t-51.5 -51.5t-53.5 -34t-46.5 -21t-35.5 -9.5l-61 -24v126z" />
    <glyph glyph-name="asterisk" unicode="*" horiz-adv-x="344" 
d="M304 601v-75l-88 13l50 -63l-63 -37l-26 75l-36 -75l-63 37l51 63l-89 -13v75l89 -13l-51 63l63 39l36 -76l26 76l63 -39l-50 -63z" />
    <glyph glyph-name="plus" unicode="+" horiz-adv-x="418" 
d="M277 414v-99h101v-139h-101v-100h-136v100h-101v139h101v99h136z" />
    <glyph glyph-name="comma" unicode="," horiz-adv-x="260" 
d="M143 176q37 0 62 -25t25 -63q0 -45 -24 -81.5t-63 -55.5l-75 -38l-38 101l38 36q-13 13 -13 38q0 38 25.5 63t62.5 25z" />
    <glyph glyph-name="hyphen" unicode="-" horiz-adv-x="564" 
d="M50 226v149h464v-149h-464z" />
    <glyph glyph-name="period" unicode="." horiz-adv-x="236" 
d="M117 174q38 0 63.5 -25t25.5 -63q0 -37 -25.5 -62t-63.5 -25q-37 0 -62 25t-25 62t25 62.5t62 25.5z" />
    <glyph glyph-name="slash" unicode="/" horiz-adv-x="755" 
d="M715 749l-498 -787h-177l500 788z" />
    <glyph glyph-name="zero" unicode="0" horiz-adv-x="581" 
d="M296 0q-110 0 -178 99.5t-68 258.5q0 147 72 246t174 99t168.5 -98t66.5 -247q0 -158 -66.5 -258t-168.5 -100zM296 579q-85 0 -85 -221q0 -234 85 -234q22 0 37.5 22t23.5 59t11 74t3 79q0 85 -17 153t-58 68z" />
    <glyph glyph-name="one" unicode="1" horiz-adv-x="375" 
d="M74 0v113h51v411h-75v112h62l26 13v51h136v-587h51v-113h-251z" />
    <glyph glyph-name="two" unicode="2" horiz-adv-x="487" 
d="M50 1v50q0 46 37 116.5t81 131t81 128t37 110.5q0 48 -49 38q9 -9 9 -31q0 -37 -27.5 -60.5t-69.5 -22.5q-32 1 -60 23.5t-27 64.5q1 57 48 104t140 47q84 0 135.5 -44.5t51.5 -118.5q0 -55 -56 -168t-131 -218h62v25h125v-175h-387z" />
    <glyph glyph-name="three" unicode="3" horiz-adv-x="559" 
d="M261 -1q-92 0 -146.5 55t-54.5 133v0q0 36 24.5 56t64.5 20q48 0 69.5 -42.5t-7.5 -82.5q22 -26 50 -26q30 0 59 34t29 78q0 47 -24.5 74t-63.5 27h-50v114q100 32 100 74q0 36 -17 49.5t-59 12.5q13 -12 13 -36q0 -29 -25.5 -52.5t-61.5 -23.5q-37 0 -63 23.5t-26 52.5
q0 59 55.5 111t133.5 52q80 0 134 -49t54 -140q0 -75 -38 -113q34 -22 61 -68.5t27 -107.5q0 -106 -72 -165.5t-166 -59.5z" />
    <glyph glyph-name="four" unicode="4" horiz-adv-x="575" 
d="M225 0v112h62v125h-237v89l264 374h98v-351h113v-136h-113v-101h51v-112h-238zM287 349v114l-74 -114h74z" />
    <glyph glyph-name="five" unicode="5" horiz-adv-x="576" 
d="M275 -1q-103 0 -164 61t-61 127q0 87 88 87q41 0 58 -26t17 -61q0 -38 -13 -50q25 -25 75 -25q36 0 68.5 35t32.5 103q0 57 -27 91t-74 34q-22 0 -37.5 -6t-25 -18.5t-14 -22.5t-10.5 -28h-101v400h376v-188h-112v38h-138v-62h62q112 0 181.5 -67t69.5 -171
q0 -113 -69 -182t-182 -69z" />
    <glyph glyph-name="six" unicode="6" horiz-adv-x="588" 
d="M313 0q-132 0 -197.5 86.5t-65.5 263.5q0 153 81 251.5t182 98.5q102 0 157 -60t55 -127q0 -29 -25.5 -52.5t-62.5 -23.5q-35 0 -60.5 23.5t-25.5 52.5q0 15 6 30.5t6 20.5q-65 11 -101.5 -30t-36.5 -109q24 12 88 12q95 0 160 -62t65 -162q0 -92 -65.5 -152.5
t-159.5 -60.5zM313 313q-45 0 -66.5 -29t-21.5 -71q0 -33 22 -60.5t66 -27.5q35 0 61.5 29t26.5 59q0 39 -25.5 69.5t-62.5 30.5z" />
    <glyph glyph-name="seven" unicode="7" horiz-adv-x="561" 
d="M100 1l239 551h-162v-50h-127v199h461v-77q0 -4 -68.5 -160l-136.5 -310l-69 -153h-137z" />
    <glyph glyph-name="eight" unicode="8" horiz-adv-x="550" 
d="M275 2q-58 0 -104 20t-71 51.5t-37.5 64.5t-12.5 63q0 102 101 175q-63 63 -63 151q0 75 52 124.5t135 49.5q84 0 135.5 -49.5t51.5 -124.5q0 -76 -63 -139q101 -75 101 -175q0 -97 -67 -154t-158 -57zM274 314q-88 -59 -88 -113q0 -31 22 -53t66 -22q33 0 60.5 22.5
t27.5 64.5t-88 101zM275 576q-34 0 -44.5 -25t3.5 -55t42 -44q26 13 42 43.5t6 56t-49 24.5z" />
    <glyph glyph-name="nine" unicode="9" horiz-adv-x="589" 
d="M265 1q-102 0 -152 54t-50 122q0 35 23 59.5t53 28.5q28 4 51 -10t32.5 -35t8 -44t-17.5 -36q13 -15 52 -15q16 0 36 7.5t40.5 23t31 47t3.5 73.5q-59 -30 -117 -22.5t-104.5 36.5t-75.5 79t-29 107q0 96 68 161t171 65q121 0 185.5 -90.5t64.5 -260.5q0 -97 -24.5 -168
t-66 -109t-87 -55.5t-96.5 -17.5zM289 578q-45 0 -67 -29.5t-22 -72.5q0 -41 22 -70.5t67 -29.5q36 0 61.5 31t25.5 69q0 40 -25.5 71t-61.5 31z" />
    <glyph glyph-name="colon" unicode=":" horiz-adv-x="277" 
d="M137 413q39 0 64.5 -24.5t25.5 -61.5t-25.5 -62t-64.5 -25q-37 0 -62 25t-25 62t25 61.5t62 24.5zM137 177q39 0 64.5 -25t25.5 -65q0 -37 -25.5 -61.5t-64.5 -24.5q-37 0 -62 24.5t-25 61.5q0 39 25 64.5t62 25.5z" />
    <glyph glyph-name="semicolon" unicode=";" horiz-adv-x="287" 
d="M150 240q-38 0 -63 25t-25 62t25 61.5t63 24.5q37 0 62 -24.5t25 -61.5t-25 -62t-62 -25zM150 177q38 0 62.5 -25t24.5 -65q0 -42 -26.5 -78.5t-60.5 -56.5l-51 -26l-49 100l12 24v37q0 40 25 65t63 25z" />
    <glyph glyph-name="less" unicode="&#x3c;" horiz-adv-x="491" 
d="M40 186v100l401 251v-162l-226 -138l226 -126v-162z" />
    <glyph glyph-name="equal" unicode="=" horiz-adv-x="552" 
d="M50 438h452v-137h-452v137zM50 101v150h452v-150h-452z" />
    <glyph glyph-name="greater" unicode="&#x3e;" horiz-adv-x="501" 
d="M50 541l401 -252v-100l-401 -239v164l226 124l-226 139v164z" />
    <glyph glyph-name="question" unicode="?" horiz-adv-x="478" 
d="M239 703q54 0 93 -18.5t59 -50t28.5 -64.5t8.5 -69q0 -18 -4.5 -35.5t-9 -28.5t-17 -27t-17 -21t-21 -21l-18.5 -18l-11 -7l-11 -7t-9.5 -6t-9 -6.5t-7.5 -6.5t-7.5 -7t-6.5 -7t-6 -8t-4.5 -9.5t-4.5 -10.5q-9 -11 -9 -27t9 -25l-100 -38q-1 2 -6.5 16.5t-7 19.5
l-5.5 18.5t-4.5 22t-1 20t2.5 22.5t8 21q7 12 26 30.5t26 31.5q6 0 12 6.5t13 6.5q35 35 42.5 54t7.5 60q0 62 -50 62v-25q0 -37 -25.5 -62t-63.5 -25t-63 25t-25 62v13q0 54 44.5 96.5t132.5 42.5h12zM227 173q30 0 58.5 -26.5t28.5 -62.5t-28.5 -62t-58.5 -26
q-39 0 -70.5 26t-31.5 62q0 37 31.5 63t70.5 26z" />
    <glyph glyph-name="at" unicode="@" horiz-adv-x="833" 
 />
    <glyph glyph-name="A" unicode="A" horiz-adv-x="804" 
d="M442 700h-2q236 -550 249 -574h75v-125h-288v124h37q-5 10 -16.5 36t-18.5 40h-198l-28 -76h37v-124h-249v125h75q11 33 69.5 176.5l111.5 270.5l54 127h92zM320 326h114l-59 139z" />
    <glyph glyph-name="B" unicode="B" horiz-adv-x="638" 
d="M523 388q75 -75 75 -162q0 -93 -63.5 -158.5t-185.5 -65.5h-299v124h62v449h-62v125h274q114 0 175.5 -59.5t61.5 -140.5q0 -74 -38 -112zM324 575h-50v-149h50q35 0 54.5 22t19.5 52t-19.5 52.5t-54.5 22.5zM349 126q37 0 62 25.5t25 62.5t-25 62t-62 25h-75v-175h75z
" />
    <glyph glyph-name="C" unicode="C" horiz-adv-x="680" 
d="M513 224l127 -26q-57 -203 -280 -203q-142 0 -235 101.5t-93 253.5q0 161 92 258.5t236 97.5q91 0 141 -27v38h127v-279h-127v39q0 40 -38.5 70.5t-102.5 30.5q-58 0 -104.5 -54t-46.5 -174q0 -113 47.5 -170.5t103.5 -57.5q36 0 67 14t48.5 32.5t27.5 34t10 21.5z" />
    <glyph glyph-name="D" unicode="D" horiz-adv-x="731" 
d="M349 702q150 0 246 -99.5t96 -251.5q0 -149 -100 -249.5t-242 -100.5h-299v126h60v448h-60v127h299zM274 575v-448h52q71 0 117.5 33.5t65 82t18.5 108.5q0 92 -52.5 158t-148.5 66h-52z" />
    <glyph glyph-name="E" unicode="E" horiz-adv-x="726" 
d="M551 289h125l-37 -288h-589v125h63v451h-63v125h551l63 -238h-126q-5 22 -7.5 31.5t-11 29t-17.5 28t-25.5 16.5t-38.5 8h-163v-151h88v51h125v-226h-125v50h-88v-175h201q47 0 75 163z" />
    <glyph glyph-name="F" unicode="F" horiz-adv-x="694" 
d="M50 703h564l50 -238h-125q-8 29 -11.5 40.5t-15 33t-29.5 30.5t-44 9h-164v-151h89v51h125v-226h-125v50h-89v-175h64v-126h-289v126h63v451h-63v125z" />
    <glyph glyph-name="G" unicode="G" horiz-adv-x="791" 
d="M452 220v130h297v-130h-65v-206h-52q-4 -1 -31 -8.5t-60.5 -12.5t-75.5 -5h-65q-174 0 -268 94t-94 268q0 89 31 159.5t83 114t115.5 66t132.5 22.5q80 0 154 -26v26h130v-297h-130v52q0 6 -3.5 17t-14 28.5t-26 32.5t-44.5 26t-66 11q-54 0 -95 -26.5t-61 -66t-29.5 -75
t-9.5 -64.5q0 -95 51.5 -163.5t143.5 -68.5q50 0 83.5 17.5t33.5 47.5v37h-65z" />
    <glyph glyph-name="H" unicode="H" 
d="M425 575v125h300v-125h-63v-450h63v-125h-300v125h76v175h-227v-175h76v-125h-300v125h63v450h-63v125h300v-125h-76v-150h227v150h-76z" />
    <glyph glyph-name="I" unicode="I" horiz-adv-x="387" 
d="M50 574v125h287v-125h-63v-450h63v-124h-287v124h63v450h-63z" />
    <glyph glyph-name="J" unicode="J" horiz-adv-x="641" 
d="M303 575v125h288v-125h-63v-350q0 -103 -68.5 -164t-181.5 -61q-106 0 -172 58t-66 128q0 39 25.5 70t62.5 31q41 0 67 -24t26 -55t-17 -59q26 -26 74 -26q43 0 65.5 20.5t22.5 81.5v350h-63z" />
    <glyph glyph-name="K" unicode="K" horiz-adv-x="780" 
d="M626 163q31 -39 61 -39h63v-124h-300v124l-176 213v-213h63v-124h-287v124h63v452h-63v124h287v-124h-63v-113l189 149v88h250v-124h-76q-8 0 -14 -3.5t-20 -15t-28 -20.5q-50 -50 -150 -124z" />
    <glyph glyph-name="L" unicode="L" horiz-adv-x="716" 
d="M543 213l7 50h126l-38 -263h-588v126h75v449h-75v126h301v-126h-76v-449h188q32 0 52 22t24 44z" />
    <glyph glyph-name="M" unicode="M" horiz-adv-x="963" 
d="M488 238l225 463h200v-125h-75v-451h75v-125h-287v125h49v226l-162 -351h-76l-187 362v-237h50v-125h-250v125h76v451h-76v125h188z" />
    <glyph glyph-name="N" unicode="N" horiz-adv-x="776" 
d="M463 576v125h263v-125h-63v-576h-100l-326 438v-313h76v-125h-263v125h75v451h-75v125h224l264 -375v250h-75z" />
    <glyph glyph-name="O" unicode="O" horiz-adv-x="735" 
d="M367 710q61 0 118 -21t106.5 -62t79.5 -113t30 -165q0 -96 -30 -168t-79.5 -112t-106 -59t-118.5 -19q-65 0 -123 20.5t-106 62t-76.5 112.5t-28.5 163q0 88 28.5 159t76.5 114t106.5 65.5t122.5 22.5zM367 119q68 0 111.5 63t43.5 167q0 105 -43.5 168.5t-111.5 63.5
q-76 0 -121 -62.5t-45 -169.5q0 -105 45 -167.5t121 -62.5z" />
    <glyph glyph-name="P" unicode="P" horiz-adv-x="609" 
d="M365 706q98 0 156 -60.5t58 -140.5q0 -31 -13 -64.5t-38.5 -65t-71 -52t-103.5 -20.5h-64v-177h64v-125h-303v125h75v454h-75v126h315zM327 428q35 0 55.5 23t20.5 54q0 30 -20.5 52.5t-55.5 22.5h-38v-152h38z" />
    <glyph glyph-name="Q" unicode="Q" horiz-adv-x="757" 
d="M697 80q17 -37 12.5 -69t-20 -61t-43 -44.5t-56 -20t-59.5 12.5t-53 54q-20 32 -25 38h-76q-66 0 -124.5 21t-106.5 63t-76.5 113.5t-28.5 164.5q0 88 28.5 158t76.5 113t107 65.5t124 22.5q60 0 117.5 -21t107 -62t79.5 -112.5t30 -163.5q0 -189 -116 -285
q21 -21 34 -30.5t26 -11t23 12t19 42.5zM377 583q-78 0 -123.5 -62.5t-45.5 -168.5q0 -65 13 -90q8 17 25 25q112 59 245 -105q40 56 40 170q0 108 -40 169.5t-114 61.5zM377 119q-100 122 -131 78q39 -78 131 -78z" />
    <glyph glyph-name="R" unicode="R" horiz-adv-x="704" 
d="M589 126h75v-126h-174q-28 13 -52.5 46.5t-24.5 91.5q0 48 -35.5 101t-102.5 62v-175h64v-126h-289v126h75v451h-75v125h302q57 0 100 -18.5t66 -49t34 -64t11 -69.5q0 -100 -62 -162q62 -83 62 -188q0 -11 6.5 -17.5t12.5 -7.5h7zM275 426h51q42 0 64.5 22t22.5 53
t-19.5 53.5t-54.5 22.5h-64v-151z" />
    <glyph glyph-name="S" unicode="S" horiz-adv-x="651" 
d="M350 438l46 -12t47 -15t48.5 -22t41.5 -29.5t36.5 -40t22 -52.5t9.5 -67q0 -200 -263 -200q-51 0 -98 19.5t-65 55.5v-75h-125v288h125v-63q0 -38 41.5 -69t96.5 -31q50 0 93.5 18.5t43.5 44.5q0 41 -29 59.5t-114 46.5q-12 4 -19 6q-26 8 -31.5 9.5t-31.5 10t-35 13.5
t-31 16t-31.5 20l-25 24t-22 30t-12 35.5t-5.5 42.5q0 84 73 142.5t177 58.5q113 0 137 -76v76h126v-238h-126v12q0 35 -35 67.5t-102 32.5q-31 0 -59.5 -18t-28.5 -45q0 -26 25.5 -39.5t99.5 -35.5z" />
    <glyph glyph-name="T" unicode="T" horiz-adv-x="749" 
d="M106 703h537l76 -238h-125l-12 38q-40 74 -51 74h-76v-450h64v-126h-289v126h63v450h-63q-26 0 -63 -74l-12 -38h-125z" />
    <glyph glyph-name="U" unicode="U" 
d="M464 577v123h261v-123h-75v-302q0 -131 -64.5 -203t-184.5 -72q-133 0 -210.5 75t-77.5 212v290h-63v123h300v-123h-74v-290q0 -46 11 -79t25 -49t34.5 -24.5t31 -9.5t23.5 -1q18 0 29.5 1t34 9.5t36.5 24.5t25.5 49t11.5 79v290h-74z" />
    <glyph glyph-name="V" unicode="V" horiz-adv-x="807" 
d="M516 577v125h251v-125h-76q-14 -48 -123 -301.5t-115 -275.5h-99q-6 25 -119.5 288.5t-119.5 288.5h-75v125h276v-125h-25l124 -314q99 194 139 314h-38z" />
    <glyph glyph-name="W" unicode="W" horiz-adv-x="1033" 
d="M743 575v126h250v-126h-63q-5 0 -8 -2.5t-4 -5.5v-3l-188 -565h-101l-113 364l-125 -364h-88l-175 551q0 10 -7.5 17.5t-17.5 7.5h-63v126h301v-126h-50l75 -250l126 376h87l126 -376l75 250h-37z" />
    <glyph glyph-name="X" unicode="X" horiz-adv-x="825" 
d="M512 364l163 -213q19 -25 37 -25h63v-125h-325v125h25l-78 109l-84 -109v-125h-263v125h75q7 0 12.5 1t12.5 5t12.5 8.5t14.5 14.5t17.5 20.5l22.5 28l28 35l36 45.5l44 55l-163 213q-3 3 -7.5 8.5t-7 8t-8.5 5t-14 2.5h-75v125h337v-125h-44l87 -116l82 116v125h263
v-125h-75q-9 0 -18 -6t-14 -11.5t-5 -6.5z" />
    <glyph glyph-name="Y" unicode="Y" horiz-adv-x="712" 
d="M438 576v49v75h224v-124h-62l-150 -237q-12 -13 -12 -52v-160h61v-126h-287v126h63v160q0 29 -13 52l-150 237h-62v124h262v-124h-13l77 -113z" />
    <glyph glyph-name="Z" unicode="Z" horiz-adv-x="701" 
d="M538 239l113 -38l-62 -200h-539v88l326 488h-101q-22 0 -44 -18.5t-33 -37.5l-10 -19l-12 -50l-126 37l63 214h476v-88l-314 -488h151q14 0 27.5 7t27 22.5t21 25.5t21 31.5t15.5 25.5z" />
    <glyph glyph-name="bracketleft" unicode="[" horiz-adv-x="313" 
d="M50 -101v836h213v-127h-50v-584h50v-125h-213z" />
    <glyph glyph-name="backslash" unicode="\" horiz-adv-x="833" 
 />
    <glyph glyph-name="bracketright" unicode="]" horiz-adv-x="311" 
d="M50 608v126h211v-833h-211v123h62v584h-62z" />
    <glyph glyph-name="underscore" unicode="_" horiz-adv-x="542" 
d="M40 -74v138h462v-138h-462z" />
    <glyph glyph-name="a" unicode="a" horiz-adv-x="804" 
d="M442 700h-2q236 -550 249 -574h75v-125h-288v124h37q-5 10 -16.5 36t-18.5 40h-198l-28 -76h37v-124h-249v125h75q11 33 69.5 176.5l111.5 270.5l54 127h92zM320 326h114l-59 139z" />
    <glyph glyph-name="b" unicode="b" horiz-adv-x="638" 
d="M523 388q75 -75 75 -162q0 -93 -63.5 -158.5t-185.5 -65.5h-299v124h62v449h-62v125h274q114 0 175.5 -59.5t61.5 -140.5q0 -74 -38 -112zM324 575h-50v-149h50q35 0 54.5 22t19.5 52t-19.5 52.5t-54.5 22.5zM349 126q37 0 62 25.5t25 62.5t-25 62t-62 25h-75v-175h75z
" />
    <glyph glyph-name="c" unicode="c" horiz-adv-x="680" 
d="M513 224l127 -26q-57 -203 -280 -203q-142 0 -235 101.5t-93 253.5q0 161 92 258.5t236 97.5q91 0 141 -27v38h127v-279h-127v39q0 40 -38.5 70.5t-102.5 30.5q-58 0 -104.5 -54t-46.5 -174q0 -113 47.5 -170.5t103.5 -57.5q36 0 67 14t48.5 32.5t27.5 34t10 21.5z" />
    <glyph glyph-name="d" unicode="d" horiz-adv-x="731" 
d="M349 702q150 0 246 -99.5t96 -251.5q0 -149 -100 -249.5t-242 -100.5h-299v126h60v448h-60v127h299zM274 575v-448h52q71 0 117.5 33.5t65 82t18.5 108.5q0 92 -52.5 158t-148.5 66h-52z" />
    <glyph glyph-name="e" unicode="e" horiz-adv-x="726" 
d="M551 289h125l-37 -288h-589v125h63v451h-63v125h551l63 -238h-126q-5 22 -7.5 31.5t-11 29t-17.5 28t-25.5 16.5t-38.5 8h-163v-151h88v51h125v-226h-125v50h-88v-175h201q47 0 75 163z" />
    <glyph glyph-name="f" unicode="f" horiz-adv-x="694" 
d="M50 703h564l50 -238h-125q-8 29 -11.5 40.5t-15 33t-29.5 30.5t-44 9h-164v-151h89v51h125v-226h-125v50h-89v-175h64v-126h-289v126h63v451h-63v125z" />
    <glyph glyph-name="g" unicode="g" horiz-adv-x="791" 
d="M452 220v130h297v-130h-65v-206h-52q-4 -1 -31 -8.5t-60.5 -12.5t-75.5 -5h-65q-174 0 -268 94t-94 268q0 89 31 159.5t83 114t115.5 66t132.5 22.5q80 0 154 -26v26h130v-297h-130v52q0 6 -3.5 17t-14 28.5t-26 32.5t-44.5 26t-66 11q-54 0 -95 -26.5t-61 -66t-29.5 -75
t-9.5 -64.5q0 -95 51.5 -163.5t143.5 -68.5q50 0 83.5 17.5t33.5 47.5v37h-65z" />
    <glyph glyph-name="h" unicode="h" 
d="M425 575v125h300v-125h-63v-450h63v-125h-300v125h76v175h-227v-175h76v-125h-300v125h63v450h-63v125h300v-125h-76v-150h227v150h-76z" />
    <glyph glyph-name="i" unicode="i" horiz-adv-x="387" 
d="M50 574v125h287v-125h-63v-450h63v-124h-287v124h63v450h-63z" />
    <glyph glyph-name="j" unicode="j" horiz-adv-x="641" 
d="M303 575v125h288v-125h-63v-350q0 -103 -68.5 -164t-181.5 -61q-106 0 -172 58t-66 128q0 39 25.5 70t62.5 31q41 0 67 -24t26 -55t-17 -59q26 -26 74 -26q43 0 65.5 20.5t22.5 81.5v350h-63z" />
    <glyph glyph-name="k" unicode="k" horiz-adv-x="780" 
d="M626 163q31 -39 61 -39h63v-124h-300v124l-176 213v-213h63v-124h-287v124h63v452h-63v124h287v-124h-63v-113l189 149v88h250v-124h-76q-8 0 -14 -3.5t-20 -15t-28 -20.5q-50 -50 -150 -124z" />
    <glyph glyph-name="l" unicode="l" horiz-adv-x="716" 
d="M543 213l7 50h126l-38 -263h-588v126h75v449h-75v126h301v-126h-76v-449h188q32 0 52 22t24 44z" />
    <glyph glyph-name="m" unicode="m" horiz-adv-x="963" 
d="M488 238l225 463h200v-125h-75v-451h75v-125h-287v125h49v226l-162 -351h-76l-187 362v-237h50v-125h-250v125h76v451h-76v125h188z" />
    <glyph glyph-name="n" unicode="n" horiz-adv-x="776" 
d="M463 576v125h263v-125h-63v-576h-100l-326 438v-313h76v-125h-263v125h75v451h-75v125h224l264 -375v250h-75z" />
    <glyph glyph-name="o" unicode="o" horiz-adv-x="735" 
d="M367 710q61 0 118 -21t106.5 -62t79.5 -113t30 -165q0 -96 -30 -168t-79.5 -112t-106 -59t-118.5 -19q-65 0 -123 20.5t-106 62t-76.5 112.5t-28.5 163q0 88 28.5 159t76.5 114t106.5 65.5t122.5 22.5zM367 119q68 0 111.5 63t43.5 167q0 105 -43.5 168.5t-111.5 63.5
q-76 0 -121 -62.5t-45 -169.5q0 -105 45 -167.5t121 -62.5z" />
    <glyph glyph-name="p" unicode="p" horiz-adv-x="609" 
d="M365 706q98 0 156 -60.5t58 -140.5q0 -31 -13 -64.5t-38.5 -65t-71 -52t-103.5 -20.5h-64v-177h64v-125h-303v125h75v454h-75v126h315zM327 428q35 0 55.5 23t20.5 54q0 30 -20.5 52.5t-55.5 22.5h-38v-152h38z" />
    <glyph glyph-name="q" unicode="q" horiz-adv-x="757" 
d="M697 80q17 -37 12.5 -69t-20 -61t-43 -44.5t-56 -20t-59.5 12.5t-53 54q-20 32 -25 38h-76q-66 0 -124.5 21t-106.5 63t-76.5 113.5t-28.5 164.5q0 88 28.5 158t76.5 113t107 65.5t124 22.5q60 0 117.5 -21t107 -62t79.5 -112.5t30 -163.5q0 -189 -116 -285
q21 -21 34 -30.5t26 -11t23 12t19 42.5zM377 583q-78 0 -123.5 -62.5t-45.5 -168.5q0 -65 13 -90q8 17 25 25q112 59 245 -105q40 56 40 170q0 108 -40 169.5t-114 61.5zM377 119q-100 122 -131 78q39 -78 131 -78z" />
    <glyph glyph-name="r" unicode="r" horiz-adv-x="704" 
d="M589 126h75v-126h-174q-28 13 -52.5 46.5t-24.5 91.5q0 48 -35.5 101t-102.5 62v-175h64v-126h-289v126h75v451h-75v125h302q57 0 100 -18.5t66 -49t34 -64t11 -69.5q0 -100 -62 -162q62 -83 62 -188q0 -11 6.5 -17.5t12.5 -7.5h7zM275 426h51q42 0 64.5 22t22.5 53
t-19.5 53.5t-54.5 22.5h-64v-151z" />
    <glyph glyph-name="s" unicode="s" horiz-adv-x="651" 
d="M350 438l46 -12t47 -15t48.5 -22t41.5 -29.5t36.5 -40t22 -52.5t9.5 -67q0 -200 -263 -200q-51 0 -98 19.5t-65 55.5v-75h-125v288h125v-63q0 -38 41.5 -69t96.5 -31q50 0 93.5 18.5t43.5 44.5q0 41 -29 59.5t-114 46.5q-12 4 -19 6q-26 8 -31.5 9.5t-31.5 10t-35 13.5
t-31 16t-31.5 20l-25 24t-22 30t-12 35.5t-5.5 42.5q0 84 73 142.5t177 58.5q113 0 137 -76v76h126v-238h-126v12q0 35 -35 67.5t-102 32.5q-31 0 -59.5 -18t-28.5 -45q0 -26 25.5 -39.5t99.5 -35.5z" />
    <glyph glyph-name="t" unicode="t" horiz-adv-x="749" 
d="M106 703h537l76 -238h-125l-12 38q-40 74 -51 74h-76v-450h64v-126h-289v126h63v450h-63q-26 0 -63 -74l-12 -38h-125z" />
    <glyph glyph-name="u" unicode="u" 
d="M464 577v123h261v-123h-75v-302q0 -131 -64.5 -203t-184.5 -72q-133 0 -210.5 75t-77.5 212v290h-63v123h300v-123h-74v-290q0 -46 11 -79t25 -49t34.5 -24.5t31 -9.5t23.5 -1q18 0 29.5 1t34 9.5t36.5 24.5t25.5 49t11.5 79v290h-74z" />
    <glyph glyph-name="v" unicode="v" horiz-adv-x="807" 
d="M516 577v125h251v-125h-76q-14 -48 -123 -301.5t-115 -275.5h-99q-6 25 -119.5 288.5t-119.5 288.5h-75v125h276v-125h-25l124 -314q99 194 139 314h-38z" />
    <glyph glyph-name="w" unicode="w" horiz-adv-x="1033" 
d="M743 575v126h250v-126h-63q-5 0 -8 -2.5t-4 -5.5v-3l-188 -565h-101l-113 364l-125 -364h-88l-175 551q0 10 -7.5 17.5t-17.5 7.5h-63v126h301v-126h-50l75 -250l126 376h87l126 -376l75 250h-37z" />
    <glyph glyph-name="x" unicode="x" horiz-adv-x="825" 
d="M512 364l163 -213q19 -25 37 -25h63v-125h-325v125h25l-78 109l-84 -109v-125h-263v125h75q7 0 12.5 1t12.5 5t12.5 8.5t14.5 14.5t17.5 20.5l22.5 28l28 35l36 45.5l44 55l-163 213q-3 3 -7.5 8.5t-7 8t-8.5 5t-14 2.5h-75v125h337v-125h-44l87 -116l82 116v125h263
v-125h-75q-9 0 -18 -6t-14 -11.5t-5 -6.5z" />
    <glyph glyph-name="y" unicode="y" horiz-adv-x="712" 
d="M438 576v49v75h224v-124h-62l-150 -237q-12 -13 -12 -52v-160h61v-126h-287v126h63v160q0 29 -13 52l-150 237h-62v124h262v-124h-13l77 -113z" />
    <glyph glyph-name="z" unicode="z" horiz-adv-x="701" 
d="M538 239l113 -38l-62 -200h-539v88l326 488h-101q-22 0 -44 -18.5t-33 -37.5l-10 -19l-12 -50l-126 37l63 214h476v-88l-314 -488h151q14 0 27.5 7t27 22.5t21 25.5t21 31.5t15.5 25.5z" />
    <glyph glyph-name="braceleft" unicode="{" horiz-adv-x="488" 
d="M126 513q0 105 62.5 166t174.5 61h75v-126h-62q-89 0 -89 -114v-75q0 -65 -25 -113q25 -44 25 -98v-75q0 -25 5.5 -48t27 -44.5t56.5 -21.5h62v-126h-75q-237 0 -237 252v38q0 22 -4.5 36.5t-9.5 19.5t-13.5 10.5t-10.5 7.5h-38v112h38q8 0 15.5 5t15 23.5t7.5 46.5v63z
" />
    <glyph glyph-name="braceright" unicode="}" horiz-adv-x="477" 
d="M389 377h38v-113h-38q-1 0 -11 -6.5t-13.5 -11t-8 -19.5t-4.5 -38v-64q0 -113 -58.5 -168.5t-178.5 -55.5h-65v125h52q47 0 66.5 24.5t19.5 88.5v74q0 53 26 101q-26 50 -26 114v74q0 13 -3 29t-11.5 36.5t-27 34t-44.5 13.5h-52v125h65q237 0 237 -250v-36
q0 -30 7 -48.5t14.5 -23.5t15.5 -5z" />
    <glyph glyph-name="cent" unicode="&#xa2;" horiz-adv-x="624" 
d="M574 214q-59 -145 -227 -160v-54h-41v54q-112 10 -184 94.5t-72 213.5q0 120 72.5 202t183.5 92v95h41v-95q55 0 105 -27v41h109v-241h-109v40q0 25 -30 53.5t-75 28.5v-390q19 4 36 12t31 19t22.5 18.5t18.5 18.5t11 12zM198 362q0 -93 30.5 -141t77.5 -60v390
q-108 -28 -108 -189z" />
    <glyph glyph-name="sterling" unicode="&#xa3;" horiz-adv-x="570" 
d="M425 230q44 0 69.5 -25.5t25.5 -71.5q0 -44 -41.5 -88t-114.5 -44q-51 0 -97 25q-27 23 -61 23q-20 0 -53.5 -18t-54.5 -18q-19 0 -33.5 19.5t-14.5 41.5q0 41 36 95q18 26 33.5 64.5t15.5 56.5v13h-85v108h61q0 19 -6.5 52t-6.5 44q0 73 60 133t133 60q72 0 120.5 -38.5
t48.5 -93.5q0 -37 -23.5 -61t-59.5 -24q-37 0 -61.5 24t-24.5 61v12q-25 0 -36.5 -19t-11.5 -42q0 -48 11 -84q5 -18 13 -24h110v-108h-86q0 -87 -37 -121q57 -20 85 -49v0q0 45 24.5 71t61.5 26z" />
    <glyph glyph-name="quoteleft" unicode="&#x2018;" horiz-adv-x="282" 
d="M129 479q-39 0 -64 24.5t-25 61.5q0 45 29.5 82t70.5 56l65 40l37 -102l-26 -36q0 -7 6.5 -20t6.5 -20q0 -36 -30.5 -61t-69.5 -25z" />
    <glyph glyph-name="quoteright" unicode="&#x2019;" horiz-adv-x="281" 
d="M153 740q38 0 63 -25t25 -62q0 -96 -88 -139l-75 -38l-38 88l38 38q-12 12 -12 51q0 37 25 62t62 25z" />
    <glyph glyph-name="quotedblleft" unicode="&#x201c;" horiz-adv-x="496" 
d="M129 479q-37 0 -63 25t-26 61q0 46 29.5 82.5t72.5 55.5l63 40l38 -102l-25 -36q0 -7 5.5 -20t5.5 -20q0 -36 -31 -61t-69 -25zM343 479q-39 0 -64 24.5t-25 61.5q0 45 29.5 82t70.5 56l65 40l37 -102l-26 -36q0 -7 6.5 -20t6.5 -20q0 -36 -30.5 -61t-69.5 -25z" />
    <glyph glyph-name="quotedblright" unicode="&#x201d;" horiz-adv-x="494" 
d="M366 740q38 0 63 -25t25 -62q0 -96 -88 -139l-75 -38l-38 88l38 38q-12 12 -12 51q0 37 25 62t62 25zM153 740q38 0 63 -25t25 -62q0 -96 -88 -139l-75 -38l-38 88l38 38q-13 12 -13 51q0 37 25.5 62t62.5 25z" />
    <glyph glyph-name="bullet" unicode="&#x2022;" horiz-adv-x="285" 
d="M141 476q45 0 74.5 -29.5t29.5 -73.5q0 -43 -29.5 -72t-74.5 -29q-43 0 -72 29t-29 72q0 44 29 73.5t72 29.5z" />
    <glyph glyph-name="fraction" unicode="&#x2044;" 
d="M725 743l-498 -787h-177l500 788z" />
    <glyph glyph-name="Euro" unicode="&#x20ac;" horiz-adv-x="647" 
d="M507 257q43 0 66.5 -25t23.5 -66q0 -60 -58 -113.5t-145 -53.5q-26 0 -52.5 5t-62 22.5t-63.5 45.5t-50 79t-29 117h-87v63h87v62h-87v60h99q16 120 84 183.5t149 63.5q83 0 140 -47.5t57 -112.5q0 -37 -27.5 -62t-57.5 -25q-42 0 -72 28.5t-15 83.5q-12 13 -25 13
q-20 0 -41.5 -35.5t-30.5 -89.5h97v-60h-110v-62h110v-63h-110q9 -68 37.5 -106.5t59.5 -40.5q8 0 15.5 3t10.5 6l4 3q-16 45 9 85t74 39z" />
    <glyph glyph-name="a.001" horiz-adv-x="804" 
d="M440 700q236 -550 249 -574h75v-125h-288v112h37q-6 12 -18 43t-19 45h-187q-36 -85 -37 -88h37v-112h-249v125h75q11 33 70 176.5l113 270.5l54 127h88zM327 326h100l-50 136z" />
    </font>
</defs>
</svg>
